<svg aria-hidden="true" style="position: absolute; width: 0; height: 0; overflow: hidden;" version="1.1" xmlns="http://www.w3.org/2000/svg" xmlns:xlink="http://www.w3.org/1999/xlink">
<defs>
<symbol id="facebook" viewBox="0 0 21 32">
<path fill="#fff" style="fill: var(--color1, #fff)" d="M17.412 18l0.887-5.791h-5.546v-3.758c0-1.584 0.775-3.129 3.259-3.129h2.521v-4.931c0 0-2.288-0.391-4.475-0.391-4.567 0-7.553 2.774-7.553 7.795v4.414h-5.077v5.791h5.077v14h6.248v-14h4.659z"></path>
</symbol>
<symbol id="github" viewBox="0 0 32 32">
<path fill="#fff" style="fill: var(--color1, #fff)" d="M10.385 24.837c0 0.125-0.144 0.225-0.325 0.225-0.207 0.019-0.351-0.081-0.351-0.225 0-0.125 0.144-0.225 0.326-0.225 0.188-0.019 0.351 0.081 0.351 0.225zM8.438 24.556c-0.044 0.125 0.081 0.269 0.269 0.306 0.163 0.063 0.351 0 0.388-0.125s-0.081-0.269-0.269-0.325c-0.163-0.044-0.344 0.019-0.388 0.144zM11.205 24.45c-0.182 0.044-0.307 0.162-0.288 0.306 0.019 0.125 0.182 0.206 0.369 0.163 0.181-0.044 0.307-0.163 0.288-0.288-0.019-0.119-0.188-0.2-0.369-0.181zM15.324 0.5c-8.683 0-15.324 6.581-15.324 15.25 0 6.931 4.369 12.862 10.611 14.95 0.801 0.144 1.083-0.35 1.083-0.756 0-0.388-0.019-2.525-0.019-3.837 0 0-4.382 0.938-5.302-1.863 0 0-0.714-1.819-1.74-2.288 0 0-1.434-0.981 0.1-0.962 0 0 1.559 0.125 2.416 1.613 1.371 2.412 3.668 1.719 4.564 1.306 0.144-1 0.551-1.694 1.002-2.106-3.499-0.388-7.030-0.894-7.030-6.906 0-1.719 0.476-2.581 1.477-3.681-0.163-0.406-0.695-2.081 0.163-4.244 1.308-0.406 4.319 1.688 4.319 1.688 1.252-0.35 2.598-0.531 3.931-0.531s2.679 0.181 3.931 0.531c0 0 3.011-2.1 4.319-1.688 0.858 2.169 0.326 3.838 0.163 4.244 1.002 1.106 1.615 1.969 1.615 3.681 0 6.031-3.687 6.512-7.186 6.906 0.576 0.494 1.064 1.431 1.064 2.9 0 2.106-0.019 4.712-0.019 5.225 0 0.406 0.288 0.9 1.083 0.756 6.26-2.075 10.504-8.006 10.504-14.938 0-8.669-7.043-15.25-15.725-15.25zM6.085 22.056c-0.081 0.063-0.063 0.206 0.044 0.325 0.1 0.1 0.244 0.144 0.326 0.063 0.081-0.063 0.063-0.206-0.044-0.325-0.1-0.1-0.244-0.144-0.326-0.063zM5.409 21.55c-0.044 0.081 0.019 0.181 0.144 0.244 0.1 0.063 0.225 0.044 0.269-0.044 0.044-0.081-0.019-0.181-0.144-0.244-0.125-0.038-0.225-0.019-0.269 0.044zM7.437 23.775c-0.1 0.081-0.063 0.269 0.081 0.388 0.144 0.144 0.326 0.163 0.407 0.063 0.081-0.081 0.044-0.269-0.081-0.388-0.138-0.144-0.326-0.163-0.407-0.063zM6.723 22.856c-0.1 0.063-0.1 0.225 0 0.369s0.269 0.206 0.351 0.144c0.1-0.081 0.1-0.244 0-0.388-0.088-0.144-0.25-0.206-0.351-0.125z"></path>
</symbol>
</defs>
</svg>
